<svg viewBox="0 0 600 450" xmlns="http://www.w3.org/2000/svg">
  <!-- White background -->
  <rect x="0" y="0" width="600" height="450" fill="white" />
  
  <!-- Title -->
  <text x="300" y="25" font-family="Arial, sans-serif" font-size="16" font-weight="bold" text-anchor="middle">FOMO25 Container Validation Workflow</text>
  
  <!-- Start Node -->
  <rect x="250" y="45" width="100" height="35" rx="8" ry="8" fill="#e6ffe6" stroke="#66cc66" stroke-width="2" />
  <text x="300" y="67" font-family="Arial, sans-serif" font-size="12" text-anchor="middle">Start</text>
  
  <!-- Step 1: Prepare Files -->
  <rect x="200" y="100" width="200" height="45" rx="8" ry="8" fill="#e6f2ff" stroke="#4d94ff" stroke-width="2" />
  <text x="300" y="118" font-family="Arial, sans-serif" font-size="12" text-anchor="middle">1. Prepare Required Files</text>
  <text x="300" y="135" font-family="Arial, sans-serif" font-size="9" text-anchor="middle">predict.py, requirements.txt, Apptainer.def</text>
  
  <!-- Step 2: Setup Environment -->
  <rect x="200" y="165" width="200" height="45" rx="8" ry="8" fill="#e6f2ff" stroke="#4d94ff" stroke-width="2" />
  <text x="300" y="183" font-family="Arial, sans-serif" font-size="12" text-anchor="middle">2. Set Up Validation Environment</text>
  <text x="300" y="200" font-family="Arial, sans-serif" font-size="9" text-anchor="middle">Clone repo, configure settings</text>
  
  <!-- Step 3: Build Container -->
  <rect x="200" y="230" width="200" height="45" rx="8" ry="8" fill="#e6f2ff" stroke="#4d94ff" stroke-width="2" />
  <text x="300" y="248" font-family="Arial, sans-serif" font-size="12" text-anchor="middle">3. Build Container</text>
  <text x="300" y="265" font-family="Arial, sans-serif" font-size="9" text-anchor="middle">apptainer build your-container.sif Apptainer.def</text>
  
  <!-- Step 4: Run Validation -->
  <rect x="200" y="295" width="200" height="45" rx="8" ry="8" fill="#e6f2ff" stroke="#4d94ff" stroke-width="2" />
  <text x="300" y="313" font-family="Arial, sans-serif" font-size="12" text-anchor="middle">4. Run Validation Tool</text>
  <text x="300" y="330" font-family="Arial, sans-serif" font-size="9" text-anchor="middle">validate_container.sh</text>
  
  <!-- Decision: Validation Passed? -->
  <polygon points="300,365 335,390 300,415 265,390" fill="#fff5e6" stroke="#ffaa33" stroke-width="2" />
  <text x="300" y="387" font-family="Arial, sans-serif" font-size="10" text-anchor="middle">Validation</text>
  <text x="300" y="402" font-family="Arial, sans-serif" font-size="10" text-anchor="middle">Passed?</text>
  
  <!-- Step 5: Debug -->
  <rect x="80" y="367" width="160" height="45" rx="8" ry="8" fill="#e6f2ff" stroke="#4d94ff" stroke-width="2" />
  <text x="160" y="388" font-family="Arial, sans-serif" font-size="11" text-anchor="middle">5. Debug and Fix Issues</text>
  <text x="160" y="405" font-family="Arial, sans-serif" font-size="9" text-anchor="middle">Check logs, error messages</text>
  
  <!-- Step 6: Ready for Submission -->
  <rect x="360" y="367" width="160" height="45" rx="8" ry="8" fill="#ffe6e6" stroke="#ff6666" stroke-width="2" />
  <text x="440" y="388" font-family="Arial, sans-serif" font-size="11" text-anchor="middle">6. Ready for Submission</text>
  <text x="440" y="405" font-family="Arial, sans-serif" font-size="9" text-anchor="middle">Container validated successfully</text>
  
  <!-- Arrows -->
  <!-- Start to Step 1 -->
  <line x1="300" y1="80" x2="300" y2="100" stroke="black" stroke-width="1.5" />
  <polygon points="300,100 297,94 303,94" fill="black" />
  
  <!-- Step 1 to Step 2 -->
  <line x1="300" y1="145" x2="300" y2="165" stroke="black" stroke-width="1.5" />
  <polygon points="300,165 297,159 303,159" fill="black" />
  
  <!-- Step 2 to Step 3 -->
  <line x1="300" y1="210" x2="300" y2="230" stroke="black" stroke-width="1.5" />
  <polygon points="300,230 297,224 303,224" fill="black" />
  
  <!-- Step 3 to Step 4 -->
  <line x1="300" y1="275" x2="300" y2="295" stroke="black" stroke-width="1.5" />
  <polygon points="300,295 297,289 303,289" fill="black" />
  
  <!-- Step 4 to Decision -->
  <line x1="300" y1="340" x2="300" y2="365" stroke="black" stroke-width="1.5" />
  <polygon points="300,365 297,359 303,359" fill="black" />
  
  <!-- Decision to Step 6 (Yes) -->
  <line x1="335" y1="390" x2="360" y2="390" stroke="black" stroke-width="1.5" />
  <polygon points="360,390 354,387 354,393" fill="black" />
  <text x="347" y="382" font-family="Arial, sans-serif" font-size="10" text-anchor="middle">Yes</text>
  
  <!-- Decision to Step 5 (No) -->
  <line x1="265" y1="390" x2="240" y2="390" stroke="black" stroke-width="1.5" />
  <polygon points="240,390 246,387 246,393" fill="black" />
  <text x="252" y="382" font-family="Arial, sans-serif" font-size="10" text-anchor="middle">No</text>
  
  <!-- Step 5 to Step 1 (Loop) -->
  <path d="M 80,390 H 60 V 123 H 200" fill="none" stroke="black" stroke-width="1.5" />
  <polygon points="200,123 194,120 194,126" fill="black" />
</svg>